<svg width="102" height="26" viewBox="0 0 102 26" fill="none" xmlns="http://www.w3.org/2000/svg">
<g clip-path="url(#clip0_2026_1643)">
<path d="M59.5659 7.64068C56.1395 -0.81812 41.314 -1.28805 35.0543 3.74695C30.9031 6.96935 30.0465 13.7498 32.0892 18.4491C34.4612 23.8198 40.2597 25.5653 45.8605 25.4982C51.4613 25.4982 57.1938 23.7527 59.5659 18.4491C60.9497 15.4282 60.9497 10.6617 59.5659 7.64068ZM54.4263 13.0113C54.4263 13.8841 54.2946 14.7568 54.031 15.5624C52.3837 20.7316 44.8062 21.0002 40.5892 18.9862C37.2287 17.3078 36.5038 12.81 37.9536 9.65468C39.4031 6.70082 42.6977 5.82808 45.8605 5.89521C50.6047 5.76095 54.4923 8.11062 54.4263 13.0113Z" fill="#111111"/>
<path d="M95.7404 24.8939V8.17774L87.1085 24.8939H81.0465L72.4147 8.17774V24.8939H66.0892V1.12874H74.655L84.0775 19.1204L93.5 1.12874H102V24.8939H95.7404Z" fill="#111111"/>
<path d="M15.2869 11.2659L7.90697 1.12874C5.20543 1.12874 2.43798 1.12874 0 1.12874L11.3333 16.2337L5.60078 24.8939C5.60078 24.8939 10.8721 24.8939 12.9147 24.8939L29.3876 1.12874C26.9496 1.12874 25.9613 1.12874 22.6667 1.12874L15.2869 11.2659Z" fill="#111111"/>
</g>
<defs>
<clipPath id="clip0_2026_1643">
<rect width="102" height="25" fill="white" transform="translate(0 0.5)"/>
</clipPath>
</defs>
</svg>
