<?xml version="1.0" encoding="utf-8"?><svg xmlns="http://www.w3.org/2000/svg" xmlns:xlink="http://www.w3.org/1999/xlink"><symbol viewBox="0 0 16 16" id="arrow" xmlns="http://www.w3.org/2000/svg"><path d="M10.781 7.333 7.205 3.757l.943-.943L13.333 8l-5.185 5.185-.943-.943 3.576-3.575H2.667V7.333h8.114Z"/></symbol><symbol viewBox="0 0 24 24" id="close" xmlns="http://www.w3.org/2000/svg"><path d="m12 10.586 4.95-4.95 1.414 1.415-4.95 4.95 4.95 4.95-1.415 1.414-4.95-4.95-4.949 4.95-1.414-1.415 4.95-4.95-4.95-4.95L7.05 5.638l4.95 4.95Z"/></symbol><symbol viewBox="0 0 102 26" id="logo" xmlns="http://www.w3.org/2000/svg"><g clip-path="url(#ca)"><path d="M59.566 7.64C56.139-.817 41.314-1.287 35.054 3.748c-4.15 3.222-5.008 10.003-2.965 14.702 2.372 5.37 8.17 7.116 13.772 7.05 5.6 0 11.333-1.746 13.705-7.05 1.384-3.02 1.384-7.787 0-10.808Zm-5.14 5.371c0 .873-.131 1.746-.395 2.551-1.647 5.17-9.225 5.438-13.442 3.424-3.36-1.678-4.085-6.176-2.635-9.331 1.45-2.954 4.744-3.827 7.907-3.76 4.744-.134 8.631 2.216 8.565 7.116ZM95.74 24.894V8.178L87.11 24.894h-6.063L72.415 8.178v16.716h-6.326V1.129h8.566l9.422 17.991L93.5 1.13h8.5v23.765h-6.26ZM15.287 11.266 7.907 1.129H0l11.333 15.105-5.732 8.66h7.314L29.388 1.129h-6.721l-7.38 10.137Z"/></g><defs><clipPath id="ca"><path transform="translate(0 .5)" d="M0 0h102v25H0z"/></clipPath></defs></symbol><symbol viewBox="0 0 16 15" id="star" xmlns="http://www.w3.org/2000/svg"><path d="m8 12.173-4.702 2.633 1.05-5.286L.392 5.861l5.351-.634L8 .333l2.258 4.894 5.35.634-3.956 3.659 1.05 5.286L8 12.172Z"/></symbol></svg>